<?xml version="1.0" standalone="no"?>
<!DOCTYPE svg PUBLIC "-//W3C//DTD SVG 20010904//EN"
 "http://www.w3.org/TR/2001/REC-SVG-20010904/DTD/svg10.dtd">
<svg version="1.0" xmlns="http://www.w3.org/2000/svg"
 width="300.000000pt" height="300.000000pt" viewBox="0 0 300.000000 300.000000"
 preserveAspectRatio="xMidYMid meet">
<metadata>
Created by potrace 1.14, written by Peter Selinger 2001-2017
</metadata>
<g transform="translate(0.000000,300.000000) scale(0.100000,-0.100000)"
fill="#000000" stroke="none">
<path d="M56 2972 c-9 -2 -21 -13 -25 -25 -4 -12 -7 -669 -7 -1459 1 -1162 4
-1440 14 -1450 10 -10 292 -13 1470 -14 801 0 1465 3 1475 8 16 8 17 88 17
1468 0 1156 -3 1460 -12 1467 -12 7 -2893 12 -2932 5z m1415 -82 c4 -17 3
-1343 -1 -1349 -6 -8 -1359 -9 -1361 -1 -1 3 -2 308 -3 677 -1 579 1 673 13
675 27 5 1351 3 1352 -2z m1455 -665 c0 -369 -3 -675 -7 -680 -5 -7 -240 -10
-681 -9 -370 1 -675 2 -678 3 -4 1 -5 1313 -1 1346 1 7 231 10 684 10 l682 0
1 -670z m-1456 -776 c4 -6 5 -1301 1 -1334 -1 -7 -231 -10 -678 -9 -373 1
-680 2 -683 3 -3 0 -5 302 -5 671 0 577 2 670 14 672 33 7 1346 3 1351 -3z
m1455 -669 l0 -675 -685 0 -685 0 0 660 c-1 363 1 667 3 675 3 13 85 15 685
15 l682 0 0 -675z"/>
<path d="M628 2515 c-21 -7 -38 -10 -38 -6 0 3 -22 -18 -49 -47 -43 -46 -51
-61 -57 -108 -3 -29 -10 -52 -14 -49 -10 6 -60 -19 -88 -45 -54 -50 -71 -150
-36 -207 28 -44 74 -81 110 -88 18 -3 46 -18 61 -34 44 -43 91 -63 147 -63 28
0 58 2 67 4 22 5 70 36 93 61 13 13 21 16 24 8 2 -6 16 -17 30 -25 24 -11 46
-13 114 -7 9 0 34 18 55 39 21 20 47 38 58 38 11 1 32 2 47 3 27 1 116 76 105
88 -3 2 -1 18 3 34 5 17 5 31 -1 34 -5 4 -9 14 -9 25 0 21 -63 79 -88 82 -9 0
-23 2 -31 2 -9 1 -15 18 -17 53 -3 43 -9 59 -35 88 -44 48 -124 68 -166 42 -7
-5 -13 -5 -13 0 0 4 -4 2 -9 -6 -7 -11 -19 -4 -56 33 -26 26 -50 45 -53 42 -2
-3 -14 0 -26 6 -31 17 -86 18 -128 3z"/>
<path d="M2239 2666 c-3 -15 -7 -26 -9 -31 -1 -3 -3 -8 -4 -12 -1 -5 -7 -26
-14 -47 -6 -22 -9 -43 -6 -47 2 -4 0 -10 -5 -13 -5 -3 -12 -21 -15 -40 -7 -37
-40 -74 -51 -56 -3 5 -10 8 -15 5 -4 -2 -19 4 -33 15 -14 11 -30 20 -37 20 -6
0 -18 6 -25 13 -26 22 -41 32 -55 35 -7 2 -18 10 -24 17 -7 9 -16 11 -25 6
-14 -9 -16 -4 71 -156 42 -74 36 -99 -24 -115 -21 -6 -57 -15 -80 -21 -123
-31 -122 -30 -107 -44 12 -11 97 -37 193 -60 26 -6 46 -25 46 -44 0 -10 -27
-62 -60 -117 -68 -112 -64 -123 22 -77 29 15 55 30 58 33 3 3 23 15 45 26 53
29 80 19 94 -35 6 -23 16 -60 22 -83 6 -24 13 -51 15 -61 2 -10 6 -28 10 -39
10 -32 32 -2 36 50 1 6 5 12 10 12 5 0 7 4 4 9 -3 4 5 41 18 82 24 77 42 92
84 73 9 -4 20 -6 25 -6 4 1 7 -2 7 -7 0 -5 12 -16 28 -23 43 -22 77 -42 82
-50 3 -3 18 -10 33 -13 l28 -7 -18 38 c-10 22 -21 41 -25 42 -5 2 -8 10 -8 18
0 8 -4 14 -10 14 -5 0 -10 9 -10 20 0 11 -4 20 -9 20 -5 0 -15 15 -22 33 -31
73 -28 75 174 122 44 10 57 17 57 32 0 9 -3 14 -6 10 -3 -3 -17 -2 -31 4 -13
5 -38 11 -55 14 -17 3 -36 9 -42 13 -6 3 -22 8 -36 10 -14 2 -35 9 -46 17 -23
15 -39 55 -21 55 6 0 7 3 4 7 -4 3 4 20 17 37 24 32 57 91 56 101 0 3 6 13 15
21 8 9 15 22 15 29 0 19 -30 8 -117 -46 -91 -55 -117 -63 -139 -38 -9 10 -14
19 -9 19 4 0 2 7 -5 15 -7 8 -10 15 -7 15 4 0 0 18 -8 40 -8 22 -14 43 -14 45
0 25 -17 82 -28 93 -7 7 -14 11 -14 8z"/>
<path d="M763 1257 c-21 -9 -99 -155 -88 -165 3 -3 -2 -14 -12 -24 -9 -10 -13
-18 -10 -18 3 0 -4 -24 -17 -52 -33 -76 -39 -91 -42 -108 -2 -8 -7 -23 -13
-35 -15 -31 -41 -108 -44 -130 -1 -11 -5 -24 -9 -30 -3 -5 -5 -44 -3 -86 1
-64 7 -85 30 -125 31 -53 101 -124 122 -124 7 0 13 -4 13 -10 0 -5 3 -9 8 -8
4 1 20 -2 36 -7 50 -14 72 -12 151 8 38 11 115 68 115 87 0 6 5 8 10 5 9 -6
14 8 11 28 0 4 3 7 8 7 9 0 27 40 22 49 -2 2 2 7 9 11 16 10 16 180 0 180 -3
0 -6 8 -7 18 -1 17 -10 55 -13 60 -2 1 -3 5 -5 10 -2 10 -14 38 -35 89 -10 23
-16 44 -12 47 3 3 0 6 -6 6 -7 0 -12 6 -12 13 0 7 -8 31 -19 53 -10 21 -37 83
-61 136 -52 121 -72 140 -127 115z"/>
<path d="M2222 1262 c-12 -2 -20 -8 -17 -13 4 -5 1 -9 -4 -9 -7 0 -11 -26 -11
-66 l0 -65 -29 32 c-16 17 -34 28 -40 25 -6 -4 -11 -1 -11 6 0 10 -2 10 -9 0
-4 -8 -12 -12 -17 -10 -5 1 -10 -12 -12 -29 -3 -28 5 -40 57 -92 47 -47 61
-67 61 -90 0 -57 -8 -63 -49 -35 -30 20 -40 34 -50 77 -25 97 -41 127 -64 123
-12 -3 -27 -5 -33 -5 -12 -1 -25 -47 -16 -56 8 -7 13 -45 7 -45 -3 0 -28 12
-55 26 -48 25 -51 25 -75 10 -15 -10 -25 -26 -25 -41 0 -25 27 -65 43 -65 5 0
20 -9 33 -19 l25 -19 -31 -7 c-17 -4 -36 -13 -44 -20 -15 -16 -10 -65 8 -66 6
0 19 -2 28 -4 10 -2 44 4 75 14 32 9 64 16 71 15 6 -1 18 -2 25 -3 6 -1 23
-10 36 -20 l25 -19 -34 -21 c-37 -22 -39 -22 -144 5 -69 17 -69 17 -87 -4 -26
-32 -13 -60 32 -72 22 -6 39 -12 39 -15 0 -2 -22 -17 -50 -34 -42 -26 -50 -36
-50 -61 0 -21 8 -35 26 -46 24 -17 27 -16 75 9 27 15 51 27 53 27 6 0 -1 -37
-8 -49 -18 -29 32 -68 64 -51 18 10 46 78 43 108 0 6 2 12 6 12 4 0 7 9 8 20
2 22 16 38 51 58 35 19 42 15 42 -27 0 -34 -7 -46 -58 -98 -68 -68 -76 -83
-56 -112 20 -28 43 -27 76 4 15 14 29 25 32 25 2 0 5 -25 5 -55 0 -57 10 -77
47 -87 34 -9 55 16 60 69 7 73 11 79 35 49 31 -40 76 -32 84 15 4 19 -8 37
-58 85 -54 54 -62 66 -61 98 0 19 3 38 6 41 12 13 73 -33 82 -61 5 -16 11 -36
14 -44 3 -8 6 -21 8 -29 5 -24 26 -71 33 -72 3 0 14 -2 23 -4 9 -2 25 6 34 16
15 17 16 25 7 49 -6 16 -9 31 -6 34 3 3 25 -5 50 -18 60 -32 101 -20 110 34 2
16 -34 60 -51 60 -6 0 -21 9 -34 18 l-24 18 41 12 c44 14 59 39 41 72 -13 24
-25 24 -105 4 -33 -8 -68 -17 -78 -19 -19 -4 -49 9 -74 32 -11 10 -6 16 25 32
39 20 40 20 113 1 41 -11 79 -20 84 -20 21 0 38 19 40 44 3 20 -3 30 -26 41
-16 9 -31 15 -34 15 -19 -1 -3 19 33 38 23 13 43 29 43 35 1 7 2 19 3 27 3 28
-13 48 -44 52 -16 3 -30 0 -30 -5 0 -6 -3 -7 -7 -4 -3 4 -21 -4 -38 -18 -38
-29 -46 -25 -34 18 11 40 4 63 -23 70 -40 11 -65 -19 -74 -88 -1 -10 -3 -16
-20 -60 -4 -11 -7 -23 -6 -26 0 -3 -15 -14 -34 -24 -26 -14 -37 -16 -43 -7 -9
16 -1 93 10 86 5 -3 9 -1 9 3 0 5 20 29 44 54 53 53 63 88 33 114 -14 12 -22
14 -25 7 -2 -7 -7 -10 -12 -7 -4 2 -15 -4 -25 -15 -28 -31 -41 -25 -38 18 1
20 0 46 -2 58 -5 24 -40 41 -73 36z"/>
</g>
</svg>
